# xmcd
# 
# Track frame offsets:
#     150
#     22509
#     43561
#     66065
#     90112
#     106925
#     142237
#     157653
#     186215
#     224991
#     246497
#     279953
# 
# Disc length: 4390
# 
# Revision: 1
# Processed by: cddbd v1.5.2PL0 Copyright (c) Steve Scherf et al.
# Submitted via: fre:ac v1.0.31
# 
DISCID=9e11240c
DTITLE=Henrik Freischlader Band - Hands On The Puzzle
DYEAR=2018
DGENRE=Blues
TTITLE0=Community Immunity
TTITLE1=Love Straight
TTITLE2=Those Strings
TTITLE3=Winding Stair
TTITLE4=Rat Race Carousel
TTITLE5=Where Do We Go
TTITLE6=Stand Up, Little Brother
TTITLE7=Share Your Money
TTITLE8=Animal Torture
TTITLE9=I Don't Work
TTITLE10=Mournful Melody
TTITLE11=Creactivity
EXTD=YEAR: 2018
EXTT0=
EXTT1=
EXTT2=
EXTT3=
EXTT4=
EXTT5=
EXTT6=
EXTT7=
EXTT8=
EXTT9=
EXTT10=
EXTT11=
PLAYORDER=
